New Barbarians
The Drug Dealer Tapes
From The Drug Dealer Tapes Silver Disc EVSD 196/197/198/199/200 >EAC>WAV>FLAC

Disc 1 & 2 : recorded live in Largo , Maryland 5 May 1979 SBD Recording

Disc 3& 4  : Lake Geneva Rehearsal Session 19 April 1979

Disc 5     : Live In San Diego, California 22 May 1979

Tracklist:
Disc 1
01 Opening Introduction
02 Sweet Little Rock'n Roller
03 Buried Alive
04 F.U.C. Her
05 Mystifies Me
06 Infekshun
07 Rock Me Baby
08 Sure The One You Need
09 Lost & Lonely
10 Love in Vain
11 Breathe On Me

Disc 2
01 Let's Go Steady
02 Apartment n 9
03 Honky Tonk Women
04 Band Introductions
05 Worried Life Blues
06 I can Feel The Fire
07 Come To Realize
08 Am I Grooving You /Seven days
09 Before They Make Me Run
10 Jumping Jack Flash

New Barbarians . The Drug Dealer  Tapes Part two (Lake Geneva Rehearsal Session SBD Recording
19 April 1979
Tracklist

Disc 3 & 4

01 Let's Go Steady
02 Run Rudolph Run
03 Take A Look At The Guy
04 Worry No More
05 Breakin' My Hearth
06 Have Some Mercy
07 Infekshun
08 Buried Alive
09 Act Together
10 Don't Worry
11 Blues Jam
12 Hotel Jam
13 Blues Jam

New Barbarians The Drug Dealer Tapes Part Three
Live In San Diego,CA,22 May 1979  SBD
Disc 5
Tracklist
01 Buried Alive
02 Love In Vain
03 Band Introduction
04 Am I Grooving You
05 Seven Days
06 Before They Make Me Run
07 Jumping Jack Flash

drugdealertapes(ev)d1t01.flac:660eb7040d44f944ad173b1b4d88a36c
drugdealertapes(ev)d1t02.flac:76f7e5378ad92f40df7ca6a5dfc22c86
drugdealertapes(ev)d1t03.flac:9247e5192e7af60841623321a20239f8
drugdealertapes(ev)d1t04.flac:7dd1ef129ed3449483d35bf1ff72fad0
drugdealertapes(ev)d1t05.flac:6617a83276ae41c8e55ab3e38960a2e2
drugdealertapes(ev)d1t06.flac:c2e2b66e0c299a8f9e6f33096c2c3be6
drugdealertapes(ev)d1t07.flac:2389ee8e7174d906419a0425100d3bdd
drugdealertapes(ev)d1t08.flac:0b8d74ba32a491d887da5a80f045ec51
drugdealertapes(ev)d1t09.flac:1fc632cec84602ba7965bceccf61e2d8
drugdealertapes(ev)d1t10.flac:86843479dd1b0570b805c5638eeaf646
drugdealertapes(ev)d1t11.flac:702eeea446b5baeeb1e479c0a7a2c3ee
drugdealertapes(ev)d2t01.flac:7b1fae5f109074a240ef36d18d9b3b45
drugdealertapes(ev)d2t02.flac:79eeb3134ab22eb71480d28b3cad37ca
drugdealertapes(ev)d2t03.flac:90172c1b9150f6044d316d98e03a3be4
drugdealertapes(ev)d2t04.flac:3d5720facb8deaeb49107dc9a2415b62
drugdealertapes(ev)d2t05.flac:73d54569a0bba18ac1e3b7f95e1251ca
drugdealertapes(ev)d2t06.flac:13f824d52a10ad30b12835ac011f4ca8
drugdealertapes(ev)d2t07.flac:01108cabf88bff2ca4dc1c63eb8ed848
drugdealertapes(ev)d2t08.flac:c9023ae886f7c9f61b3a02f52428d099
drugdealertapes(ev)d2t09.flac:30bdb14b10102329d1cf07c13da86c51
drugdealertapes(ev)d2t10.flac:27c32c077fc8e99dcb8a596716156dd7
drugdealertapes(ev)d3t01.flac:e1464a9d6730d723bb405454be1abe61
drugdealertapes(ev)d3t02.flac:b7bea07ad546f9c53926692fcf1c773c
drugdealertapes(ev)d3t03.flac:23b5d68f3131810f59901675b1a63a96
drugdealertapes(ev)d3t04.flac:60204c6f60479ae34c197f2fb3f81317
drugdealertapes(ev)d3t05.flac:20e79322621ba79fe1f1f17d94627e3c
drugdealertapes(ev)d3t06.flac:f2b6832ed97632d2770271c6753323f0
drugdealertapes(ev)d3t07.flac:ed3159f1047d5445784ac847f192ff14
drugdealertapes(ev)d3t08.flac:b333c0e118511a93c55fd279c9cd8b2e
drugdealertapes(ev)d3t09.flac:ef419e73b3388b64f43a1053094a7f48
drugdealertapes(ev)d3t10.flac:a6cb1cc5f529f17e30132729a340ba86
drugdealertapes(ev)d3t11.flac:86c80547dcd6b875e31a19c0cea27915
drugdealertapes(ev)d3t12.flac:ac7f08376d64d1dab20015c81c1c2866
drugdealertapes(ev)d3t13.flac:77c3c2d7ad0469816e499ef1b7eff7ee
drugdealertapes(ev)d3t14.flac:edb6d79a07bfac58cd856915d58dbb53
drugdealertapes(ev)d3t15.flac:7126cf83f830c9eac5deb6ea6f64e193
drugdealertapes(ev)d3t16.flac:17e25c89f1f0535658b748734e3d5a9e
drugdealertapes(ev)d3t17.flac:18a6b5fae3fb5356253d2bdee75ee2ce
drugdealertapes(ev)d4t01.flac:ae4cdf7f8c9c5d3dbcf12d5efc7dbb42
drugdealertapes(ev)d4t02.flac:91d30d277565972e9e20a90db63a4b3f
drugdealertapes(ev)d4t03.flac:182de1bab2cad772f65a90b9eee340bb
drugdealertapes(ev)d4t04.flac:13fa39d6e82e310565312f5210fe9cff
drugdealertapes(ev)d4t05.flac:567125810e1a3e3f81a81f95bb2aa2f6
drugdealertapes(ev)d4t06.flac:79b6ce30c69c4837185d8d9f1d4ce4bf
drugdealertapes(ev)d4t07.flac:82880f1a4e01facc5a9077467bffbc72
drugdealertapes(ev)d4t08.flac:40d11d3ccf86fc242c324cc6ec4689c0
drugdealertapes(ev)d4t09.flac:4bea35704a567e14660e545f647c4523
drugdealertapes(ev)d4t10.flac:dc8ae5dab307e13c7bd158d7e0acf6d5
drugdealertapes(ev)d4t11.flac:872c4645b22a3470388bedf874436cd1
drugdealertapes(ev)d4t12.flac:0684a573f543f1b4c29b7dff4f49e627
drugdealertapes(ev)d5t01.flac:c9a7bf923aa139ab91362d087d7bfa08
drugdealertapes(ev)d5t02.flac:9fa56589020c8792bcb3a6fa258b5218
drugdealertapes(ev)d5t03.flac:991cb6dca73697007160edd9898ab21c
drugdealertapes(ev)d5t04.flac:04345d247a5c7b21de3c3b1f2fe1dce4
drugdealertapes(ev)d5t05.flac:6a7396da7cb3f37b166add81a5d1edb6
drugdealertapes(ev)d5t06.flac:bf701b2fbc10b69e7a39720533630f83
drugdealertapes(ev)d5t07.flac:b5bcbbb09d5a14252e59895d62c47630

    length     expanded size   cdr  WAVE problems filename
     1:31.30       16123004    ---   --   ---xx   drugdealertapes(ev)d1t01.flac
     4:17.20       45381884    ---   --   ---xx   drugdealertapes(ev)d1t02.flac
     7:10.17       75892028    ---   --   ---xx   drugdealertapes(ev)d1t03.flac
     5:13.43       55314380    ---   --   ---xx   drugdealertapes(ev)d1t04.flac
     6:20.40       67126124    ---   --   ---xx   drugdealertapes(ev)d1t05.flac
     5:20.37       56535068    ---   --   ---xx   drugdealertapes(ev)d1t06.flac
     6:34.70       69666284    ---   --   ---xx   drugdealertapes(ev)d1t07.flac
     5:17.23       55972940    ---   --   ---xx   drugdealertapes(ev)d1t08.flac
     6:21.57       67342508    ---   --   ---xx   drugdealertapes(ev)d1t09.flac
     9:28.05      100207004    ---   --   ---xx   drugdealertapes(ev)d1t10.flac
    10:47.38      114220220    ---   --   ---xx   drugdealertapes(ev)d1t11.flac
     4:48.12       50831468    ---   --   ---xx   drugdealertapes(ev)d2t01.flac
     4:27.70       47263484    ---   --   ---xx   drugdealertapes(ev)d2t02.flac
     5:24.03       57160700    ---   --   ---xx   drugdealertapes(ev)d2t03.flac
     0:48.67        8624828    ---   --   ---xx   drugdealertapes(ev)d2t04.flac
     4:18.43       45612380    ---   --   ---xx   drugdealertapes(ev)d2t05.flac
     7:23.17       78185228    ---   --   ---xx   drugdealertapes(ev)d2t06.flac
     5:59.55       63457004    ---   --   ---xx   drugdealertapes(ev)d2t07.flac
    15:57.43      168915980    ---   --   ---xx   drugdealertapes(ev)d2t08.flac
     4:50.27       51219548    ---   --   ---xx   drugdealertapes(ev)d2t09.flac
     8:10.15       86471324    ---   --   ---xx   drugdealertapes(ev)d2t10.flac
     3:02.07       32121308    ---   --   ---xx   drugdealertapes(ev)d3t01.flac
     3:49.62       40541468    ---   --   ---xx   drugdealertapes(ev)d3t02.flac
     1:48.26       19112396    ---   --   ---xx   drugdealertapes(ev)d3t03.flac
     1:36.50       17052044    ---   --   ---xx   drugdealertapes(ev)d3t04.flac
     2:28.32       26182508    ---   --   ---xx   drugdealertapes(ev)d3t05.flac
     3:32.55       37526204    ---   --   ---xx   drugdealertapes(ev)d3t06.flac
    13:58.70      147987884    ---   --   ---xx   drugdealertapes(ev)d3t07.flac
     2:21.15       24907724    ---   --   ---xx   drugdealertapes(ev)d3t08.flac
     0:53.30        9419804    ---   --   ---xx   drugdealertapes(ev)d3t09.flac
     4:52.70       51673484    ---   --   ---xx   drugdealertapes(ev)d3t10.flac
     2:43.08       28772060    ---   --   ---xx   drugdealertapes(ev)d3t11.flac
     2:50.59       30126812    ---   --   ---xx   drugdealertapes(ev)d3t12.flac
     5:03.46       53557436    ---   --   ---xx   drugdealertapes(ev)d3t13.flac
     1:26.32       15245708    ---   --   ---xx   drugdealertapes(ev)d3t14.flac
     2:43.70       28917884    ---   --   ---xx   drugdealertapes(ev)d3t15.flac
     5:50.15       61775324    ---   --   ---xx   drugdealertapes(ev)d3t16.flac
     7:28.65       79180124    ---   --   ---xx   drugdealertapes(ev)d3t17.flac
    10:28.60      110920364    ---   --   ---xx   drugdealertapes(ev)d4t01.flac
     6:33.60       69466364    ---   --   ---xx   drugdealertapes(ev)d4t02.flac
     1:53.00       19933244    ---   --   ---xx   drugdealertapes(ev)d4t03.flac
     1:49.60       19368764    ---   --   ---xx   drugdealertapes(ev)d4t04.flac
     8:23.67       88886828    ---   --   ---xx   drugdealertapes(ev)d4t05.flac
     9:35.53      101554700    ---   --   ---xx   drugdealertapes(ev)d4t06.flac
     3:11.22       33744188    ---   --   ---xx   drugdealertapes(ev)d4t07.flac
     1:22.43       14565980    ---   --   ---xx   drugdealertapes(ev)d4t08.flac
     1:50.02       19408748    ---   --   ---xx   drugdealertapes(ev)d4t09.flac
     5:02.10       53296364    ---   --   ---xx   drugdealertapes(ev)d4t10.flac
     4:17.55       45464204    ---   --   ---xx   drugdealertapes(ev)d4t11.flac
     5:49.13       61594220    ---   --   ---xx   drugdealertapes(ev)d4t12.flac
     5:48.47       61497788    ---   --   ---xx   drugdealertapes(ev)d5t01.flac
     7:39.63       81115820    ---   --   ---xx   drugdealertapes(ev)d5t02.flac
     1:30.07       15892508    ---   --   ---xx   drugdealertapes(ev)d5t03.flac
    17:48.65      188548124    ---   --   ---xx   drugdealertapes(ev)d5t04.flac
     5:57.70       63139484    ---   --   ---xx   drugdealertapes(ev)d5t05.flac
     8:30.58       90100460    ---   --   ---xx   drugdealertapes(ev)d5t06.flac
     4:20.22       45915788    ---   --   ---xx   drugdealertapes(ev)d5t07.flac
   308:57.46     3270037500 B                     (totals for 57 files, 0.6070 overall compression ratio)



